<mxfile host="app.diagrams.net" modified="2023-10-20T13:46:18.358Z" agent="Mozilla/5.0 (Macintosh; Intel Mac OS X 10_15_7) AppleWebKit/537.36 (KHTML, like Gecko) Chrome/118.0.0.0 Safari/537.36" etag="lmf-tYmvFVv2vM4JioiW" version="22.0.6" type="github">
  <diagram name="第 1 页" id="oOwmf1uKx6_3mX6nvs2F">
    <mxGraphModel dx="1146" dy="587" grid="1" gridSize="10" guides="1" tooltips="1" connect="1" arrows="1" fold="1" page="1" pageScale="1" pageWidth="1169" pageHeight="827" math="0" shadow="0">
      <root>
        <mxCell id="0" />
        <mxCell id="1" parent="0" />
        <mxCell id="09XcRlOtonNwv0cxY0W5-3" value="" style="edgeStyle=orthogonalEdgeStyle;rounded=0;orthogonalLoop=1;jettySize=auto;html=1;" edge="1" parent="1" source="09XcRlOtonNwv0cxY0W5-1" target="09XcRlOtonNwv0cxY0W5-2">
          <mxGeometry relative="1" as="geometry" />
        </mxCell>
        <mxCell id="09XcRlOtonNwv0cxY0W5-1" value="进群上报" style="rounded=0;whiteSpace=wrap;html=1;" vertex="1" parent="1">
          <mxGeometry x="220" y="270" width="120" height="60" as="geometry" />
        </mxCell>
        <mxCell id="09XcRlOtonNwv0cxY0W5-5" value="" style="edgeStyle=orthogonalEdgeStyle;rounded=0;orthogonalLoop=1;jettySize=auto;html=1;" edge="1" parent="1" source="09XcRlOtonNwv0cxY0W5-2" target="09XcRlOtonNwv0cxY0W5-4">
          <mxGeometry relative="1" as="geometry" />
        </mxCell>
        <mxCell id="09XcRlOtonNwv0cxY0W5-2" value="逆向" style="whiteSpace=wrap;html=1;rounded=0;" vertex="1" parent="1">
          <mxGeometry x="420" y="270" width="120" height="60" as="geometry" />
        </mxCell>
        <mxCell id="09XcRlOtonNwv0cxY0W5-7" value="" style="edgeStyle=orthogonalEdgeStyle;rounded=0;orthogonalLoop=1;jettySize=auto;html=1;" edge="1" parent="1" source="09XcRlOtonNwv0cxY0W5-4" target="09XcRlOtonNwv0cxY0W5-6">
          <mxGeometry relative="1" as="geometry" />
        </mxCell>
        <mxCell id="09XcRlOtonNwv0cxY0W5-4" value="javaClient" style="whiteSpace=wrap;html=1;rounded=0;" vertex="1" parent="1">
          <mxGeometry x="620" y="270" width="120" height="60" as="geometry" />
        </mxCell>
        <mxCell id="09XcRlOtonNwv0cxY0W5-11" value="" style="edgeStyle=orthogonalEdgeStyle;rounded=0;orthogonalLoop=1;jettySize=auto;html=1;" edge="1" parent="1" source="09XcRlOtonNwv0cxY0W5-6" target="09XcRlOtonNwv0cxY0W5-10">
          <mxGeometry relative="1" as="geometry" />
        </mxCell>
        <mxCell id="09XcRlOtonNwv0cxY0W5-6" value="ss-robot-cloud" style="whiteSpace=wrap;html=1;rounded=0;" vertex="1" parent="1">
          <mxGeometry x="820" y="270" width="120" height="60" as="geometry" />
        </mxCell>
        <mxCell id="09XcRlOtonNwv0cxY0W5-13" value="" style="edgeStyle=orthogonalEdgeStyle;rounded=0;orthogonalLoop=1;jettySize=auto;html=1;" edge="1" parent="1" source="09XcRlOtonNwv0cxY0W5-10" target="09XcRlOtonNwv0cxY0W5-12">
          <mxGeometry relative="1" as="geometry" />
        </mxCell>
        <mxCell id="09XcRlOtonNwv0cxY0W5-10" value="MsgConsumeType.NEW_CHATROOM_MEMBER:&lt;br&gt;&lt;span style=&quot;&quot;&gt;&lt;span style=&quot;&quot;&gt;&amp;nbsp;&amp;nbsp;&amp;nbsp;&amp;nbsp;&lt;/span&gt;&lt;/span&gt;用户进群增量上报,&lt;br&gt;MsgConsumeConfig:&lt;br&gt;map配置表, 配置合适的consumer" style="whiteSpace=wrap;html=1;rounded=0;" vertex="1" parent="1">
          <mxGeometry x="1020" y="270" width="320" height="60" as="geometry" />
        </mxCell>
        <mxCell id="09XcRlOtonNwv0cxY0W5-12" value="RocketMqConsumer.consumer" style="whiteSpace=wrap;html=1;rounded=0;" vertex="1" parent="1">
          <mxGeometry x="1520" y="270" width="120" height="60" as="geometry" />
        </mxCell>
      </root>
    </mxGraphModel>
  </diagram>
</mxfile>
